<?xml version="1.0" encoding="UTF-8"?>
<svg version="1.1" viewBox="0 0 2048 1209" width="1280" height="1280" xmlns="http://www.w3.org/2000/svg">
<path transform="translate(0)" d="m0 0h2048v1209h-2048z" fill="#FCFCFC"/>
<path transform="translate(648,19)" d="m0 0h44l21 2 25 5 24 7 16 6 19 9 10 6 7 4 10 7 13 10 16 15 7 8 4 5 7 9 3 4v2h2l5 9 5 7 6 12 6 10 5 13 3 7 7 21 10 38 3 23 1 27v18l-1 27-4 29-9 36-8 24-5 13-10 19-8 15-12 17-9 11-11 12-8 8-8 7-13 10h-2v2l-21 12-22 11-16 6-41 10-20 4h-8l-3-2-2-36-3-32v-29l1-32 1-12 5-10 11-11 6-5 7-8 7-9 8-11 4-11 2-12v-23l-8-67-11-84-6-37-5-18-3-4v-2l-4 1v15l3 45 2 60 2 50 1 23-3 1-7-1-1-2-6-55-6-72-2-42-2-17-1-3-4 2-1 1-1 187-1 4h-13l-1-3v-148l-1-42-6 1-1 6-4 93-6 70-2 19-1 3h-11l-1-1v-15l3-49 3-43 3-60 1-27-8 3-3 10-8 57-10 78-6 59v31l3 14 9 16 13 15 8 8 5 4 9 13 2 7 1 10v42l-2 34-4 40-4 15-11-1-39-8-23-7-15-6-16-8-18-11-11-9-4-2-5-5-10-9-7-8-5-5-4-5-5-5v-2l-3-1-1-4-3-1-10-16-10-17-8-17-13-36-5-24-2-10-4-24-2-20v-30l4-36 5-27 9-31 4-13 5-10 3-7 5-11h2l2-7h2l4-10h2l2-5 5-9 8-10 7-8 11-12 8-8 4-1 2-4 4-1 1-3 12-9h2v-2l6-2v-2l7-5 5-1v-2l9-3v-2l8-4 14-5 12-5 14-4 12-3 21-4z" fill="#EE1C2B"/>
<path transform="translate(1719,22)" d="m0 0h43l27 2 36 4 36 5 21 5 32 11 27 13 18 11 5 4 6 3v2l5 2 9 7v2l4 2 14 14 9 11 6 7 4 7 6 10 5 7 5 12 6 11 3 6 2 1v216l-8 14-14 28-9 15-10 14-13 16-21 21-16 12-17 10-23 12-22 9-8 3-15 5-21 5-21 4-40 5h-18l-1-1-2-29v-13l6-7 12-4h2l2-29 1-90v-30l-1-33-2-26-6-42-6-29-4-15-7-21-3-8-12-29-13-25-8-11-5-4-4-3-6-1-2 4v51l2 45 2 85 4 135 4 105v30l-1 1-45-1-32-2-49-5-15-3-1-1v-526l2-4 51-5 65-6z" fill="#EE1C2B"/>
<path transform="translate(1817,633)" d="m0 0h44l187 1v555h-338l-1-4-1-185v-308l1-57 16-1z" fill="#B7C548"/>
<path transform="translate(1232,19)" d="m0 0h35l23 2 20 4 35 10 20 9 15 8 14 9 9 7 3 1v2l5 2 7 7 8 7 7 8 3 3 10 13 2 1 3 5 7 11 6 10 10 18 4 11 5 12 6 19 6 22 5 26 2 23v47l-3 34-5 24-3 12-4 15-7 21-6 14-8 16-8 14-10 14-7 9-4 5-7 8-11 11-22 18-9 6h-2v2l-16 8-21 10-8 3-21 6-35 8-16 3h-9l-6-74-1-24v-33l1-12 4-13 5-4 7-6 15-9h2v-2l8-4 1-2 7-4 15-15 8-12 5-10 6-18 2-15 1-17v-19l-2-25-6-29-9-27v-2h-2l-3-9-7-16-11-19-9-12-9-10-11-8-16-6-3-1h-16l-13 4-12 6-4 3h-2v2l-8 7-10 12-9 15-10 19-7 16-7 21-6 29-3 18-2 20v19l2 15v6h2l5 17 10 19 6 8 12 12 3 2v2l4 2 12 9 10 6 8 7 6 11 2 12v47l-6 65-3 17-3 11-27-5-32-8-20-7-19-9-15-9-15-10-8-7-5-4v-2l-4-2-22-22-14-18-12-19-13-26-9-25-7-24-5-27-4-29-1-14v-24l3-28 4-27 7-28 6-18 11-26 8-15 2-5h2l2-5 5-9h2l2-6 9-11 7-8 9-10 9-9 8-7 12-9 9-7 9-5 5-3 4-1v-2l17-8 8-4 14-5 27-7 23-4z" fill="#EE1C2B"/>
<path transform="translate(1140,634)" d="m0 0h140l6 3 7 10 10 17 16 29 10 18 13 23 14 24 13 23 12 21 14 24 7 14 12 22 16 31 16 32 15 33 13 31 11 24 5 6 3 1-5-56-2-31-2-51-1-37v-210h115l1 555h-55l-66-1-11-2-5-6-14-26-8-14-7-14-12-22-15-27-12-21-13-23-11-20-13-23-8-15-13-23-13-24-12-22-21-41-14-29-18-41-5-9-3-1 2 30 1 68 1 199 1 109-52-2-63-2-1-213v-340z" fill="#B8C548"/>
<path transform="translate(32,634)" d="m0 0h229l172 1 1 63-2 11-6 11-10 14-14 20-13 18-11 16-12 17-16 23-22 32-14 20-13 19-16 23-25 37-14 20-16 24-27 40-14 20-13 19-1 3h192l65 1 7 1-1 103h-312l-118-1v-64l3-9 19-28 13-18 12-17 14-19 12-18 13-18 15-22 14-20 15-22 12-17 13-19 14-19 14-21 13-18 10-15 16-23 8-12 25-37 8-11 1-3-21 1h-192l-26-1-1-22z" fill="#B8C649"/>
<path transform="translate(8,27)" d="m0 0 330 1 1 1v46l-1 47-1 6-79 1-121 1-4 1-1 2-1 11v90l1 15h191l2 1v80l-1 20-2 1-127 1-63 1-1 4-1 213-95-1-20-1-7-2-1-108v-312z" fill="#EE1C2B"/>
<path transform="translate(694,671)" d="m0 0h205l18 2 21 6 15 6 16 9 14 10 11 9 11 11 11 14 8 13 9 19 7 22 6 29 1 9-1 1h-476l-28-1-1-1v-9l4-22 7-25 5-12 8-14 12-17 11-13 8-8 17-13 14-8 13-6 16-5 12-3z" fill="#FD9C32"/>
<path transform="translate(1964,738)" d="m0 0h82l2 1v348h-213l-2-2-1-28v-101l10-1h196v-102h-49l-154-1-2-1-1-24v-26l1-61 2-1z" fill="#FCFCFC"/>
<path transform="translate(548,1050)" d="m0 0h425l73 1 1 5-3 17-5 15-12 22-11 14-12 12-11 7-11 5-12 3-7 1-18 1h-300l-18-1-15-3-13-5-13-8-11-9-12-13-11-19-5-13-7-27v-4z" fill="#FD9C33"/>
<path transform="translate(550,847)" d="m0 0h514l7 3 8 11 4 9 1 10-2 8-5 10h-2v2l-14 5-16 1-426 1-97-1-9-3-10-9-4-8-1-5v-9l4-10 9-11 5-3z" fill="#591910"/>
<path transform="translate(537,973)" d="m0 0h107l33 2 25 5 20 6 28 10 26 11 13 6 9 1 7-4 14-6 21-6 15-5 34-9 12-4 25-5 34-2h95l10 2 7 3v2l4 2 5 8 2 7v13l-2 7-4 9-4 5-11 4-11 1h-422l-93-1-14-1-12-5-8-9-4-9v-11l5-13 8-9 7-3 5-1z" fill="#53190F"/>
<path transform="translate(712,920)" d="m0 0h153l172 1 5 2 1 10v19l-5 1-30 1-42 4-31 4-39 11-17 5-29 9-22 8-16 5-12 6h-9l-14-6-19-10-18-8-25-9-28-7-25-5-22-3-44-3-60-2-1-2-1-28 1-2h112z" fill="#F4BC35"/>
<path transform="translate(1582,38)" d="m0 0h1l4 21 1-4 4-2 3 9-1 7v5l-1 3 1 9h-2l3 10-1 5v8l1 5-1 18 1 2v28l1 6-1 6v23l-1 3v14l1 8-1 26 1 5v70l-1 10 1 10v20l1 8 1 11v87l-1 8 1 18v2h2v2h-3v7l3 1-1 3 2 5v7l1 2-1 2 4-1 2-1 3 1v3l3 1v4 1h3v12h-5l-2 1-5 1v6l3-1 2 5 17 4 18 1 7 3 4 3h-4v2l4-1 11 1 1-2 2 1 2-2v2h6l3 2 13 1 31 1v-17l-1-26-2-34-1-9-1-22v-9l-1-2 1-7v-45l-1-21-1-2v-11l-1-8v-36l-1-19-2-61-1-13-1-30-1-19v-21l-2-1h2l-1-7v-29l3-4h2v54l2 45 2 85 4 135 4 105v30l-1 1-45-1-32-2-49-5-15-3-1-1z" fill="#FB1F35"/>
<path transform="translate(35,1189)" d="m0 0h91l197 1 102 1-4 3-10 3-13 2-9 3-4 1v6h-279l-2-5-9-4-19-3-23-2-34-4v-1z" fill="#EAFDFD"/>
<path transform="translate(1112,52)" d="m0 0 2 1-6 6-3 1 1 2-3 3-3 1 2 2h-4l1 3-3 4h-3l1 3-5 5-4 3-4 1 1 3-3 2-8 4-2 4-5 5h-2l-2 6h-2l-1 7-5 3-4 8-2 1-1 7-6 2-1 6-1 2h-3l1 7-5 8-2 1-3 8-3 4-3 7-4 7-3 11-4 7-2 6-2 7-2 23-2 4 2 10-1 4 1 14 1 3-2 6-1 4 2 11-1 5-3 5 1 5-2 1v2l3-1-1 4 1 8 1 9 2 9-1 3-4 1 1 5 2 16 2 11 4 14 4 8 6 18 6 15v4h2v4h2l2 7 2 2v3h2l1 4 2 3v3h2v3h3v2h2l1 6h-2v-2l-3-1v-2l-4-2-3-2v-2h-2l-2-4v-3h-2l-10-15-2-2-3-4-8-18-10-31-6-28-5-36-1-14v-24l3-28 4-27 7-28 6-18 11-26 8-15 2-5h2l2-5 5-9h2l2-6 9-11 7-8 9-10 9-9 8-7 12-9 9-7 9-5z" fill="#FB2036"/>
<path transform="translate(631,122)" d="m0 0h3v27l-4 76-4 56-1 20v15l11 1 4-45 4-47 4-93 2-7 6-1 1 1 1 46v147h13l1-191 4-4 3 1 2 8 4 66 6 69 5 48h9v-14l2 4v11l-1 1-27 1-2 1h-23l-1-2 2-6v-108h-1l-7 34-1 21 2 12v10l2 22 2 4-1 6-3 1-1 4-10 3-14-1v-32l3-47 2-25 2-45 1-11v-23l-1-1-1 3-2 18-1 7-1 18-3 12-4 7h-2v6l-2 7-6 42-4 37-3 33-1 17v14l2 13 5 12-1 2-6-12-2-11v-31l7-68 13-99 5-32 3-6z" fill="#EBE1D4"/>
<path transform="translate(1760,1189)" d="m0 0h288v20h-266l-3-4-23-7-31-7v-1z" fill="#EAFDFD"/>
<path transform="translate(1339,320)" d="m0 0 2 3-1 14-2 3 2 3h3l1 3v7l-4 10-3 7-2 8-4 1v2h-2l-2 8h-2l-2 6-9 3-5 8 2 1-4 2v-2l-5 1 1 4h-2l-1 3 1 4-1 4 3 1-2 5-3-4-3-5-1-2-6 2-1 1 2 9 3 3 1 5-3 7-3 2h-2l-2 4-2 7-3-1-1 2-3-2-2 1v-2l-3 1-3-1 1 4-1 10-1 7 1 2-1 8 1 7 2 13 2 6-1 3 1 6v29h5l3-2v5l1 3h11l16-2h27l3-1v2l9-2v2l6-1-3 3-24 7-39 9-16 3h-9l-6-74-1-24v-33l1-12 4-13 5-4 7-6 15-9h2v-2l8-4 1-2 7-4 15-15 8-12 5-10 6-18z" fill="#FB2036"/>
<path transform="translate(732,300)" d="m0 0h1l4 19 2 13v13l1 9 1 2h2l1 5h2l-1 11-5 9-1 5h-2v4l-2 1v2l-6 6h-2l-2 6-3 6-7 2v3l-5 4-1 2-3 1-1 2h-3l-1 9-1 5 1 8 2 7 1 3 3 3v3h-3v8h-2l2 6 1 8-1 8v3h-4l-2 11 2 10-1 1 3 3-1 5-1 2h-3l1 3-1 4h4l1-3 2 1v10l1 4 4 3 6 2h4l-2-8-2-2-2-6-3-2 1-5 2-2v2h4l1 4h2l2 5 5 2-1 4 4 2v2l-2 1 7 4h5l5 1h2l4 4v2h12l-3 2-41 10-20 4h-8l-3-2-2-36-3-32v-29l1-32 1-12 5-10 11-11 6-5 7-8 7-9 8-11 4-11 2-12v-23l-3-27z" fill="#FB1F35"/>
<path transform="translate(513,67)" d="m0 0 2 1-1 4 2-3 2 5-2 3h-1l-2 3h-5l1 3-3 1v2l-3 2-1 3-2 2h-2l-4 8h-2l-2 4-4 3-1 3-4 4-9 12-3 5h-2v3h-2v3l-2 1-1 5-1 3h-2l-1 7h-2v2l-2 1-5 10-2 1v3l-3 3-6 18v4l-5 5v3l-2 1-3 8-2 12-1 5-1 7-2 10 2 4v29l-1 2h-2l1 6-1 4 2 3-1 4h-2v7h-2l1 5 1 2 1 13-2 16h2l-2 5 2 1 2 16 2 12 2 10 2 3 1 6 3 8 2 5v6l2 1 2 5v5l-5-1-1-4 2-4-3-1-8-16-1-10-2-4v-3h2v-2h-2l-1-9-3-9v-5l-3-7-2-7-2-1-2 3-3-28v-30l4-36 5-27 9-31 4-13 5-10 3-7 5-11h2l2-7h2l4-10h2l2-5 5-9 8-10 7-8 11-12 8-8 4-1 2-4 4-1 1-3z" fill="#FB2136"/>
<path transform="translate(1232,19)" d="m0 0h35l23 2 20 4 35 10 20 9 15 8 14 9 9 7 3 1v2l5 2 7 7 8 7 7 8 3 3 10 13 2 1 3 5 7 11 6 10 10 18 4 11 5 12 6 19 6 22 5 26 2 23v47l-3 34-5 24-3 12-4 15-2 2 2-13 4-15 2-13 1-6v-6l1-3-1-3 1-6-1-2 2-1 1-14v-31-4-24l-1-14-4-6h2l-1-8-1-7h-2l-1-5v-2l-1-5-2-1 1-5-3-8v-5l-2-6-2-7-1-4 1-4-4-2-2-4-1-6h-2l-1-6-3-1-1-5-3-4v-2h-2v-2h-2l-3-6-1-3-2-1h2v-3l-4-1-5-4-1-4-6-5-1-5-5-4v-2l-4-2-5-4-4-6-2-1v-2h-2v-3l-5-2-9-7-2-1v-2h-3v-2l-5-1v-3l-6-2-4-2v-2l-5-1v-2h-5l-5-4v-2h-6l-4-4-8-3-5-1-2 1v-2h-6l-1-3-5-1-5-2v-3l-5 1v-2l-3-1-2-2-5-1-4-2v3l-5-2v-2h-2v-3l-5-1-1 3h-9l-1-3-3 1-18-1-31-1-4-1-5 1h-13v2h-2v-2l-3 1h-12v-1l22-3z" fill="#FB2035"/>
<path transform="translate(631,122)" d="m0 0h3v27l-4 76-4 56-1 20v15l11 1 4-45 4-47 4-93 2-7 6-1 1 1 1 46v75h-1l-1-42-2-1-7 34-1 21 2 12v10l2 22 2 4-1 6-3 1-1 4-10 3-14-1v-32l3-47 2-25 2-45 1-11v-23l-1-1-1 3-2 18-1 7-1 18-3 12-4 7h-2v6l-2 7-6 42-4 37-3 33-1 17v14l2 13 5 12-1 2-6-12-2-11v-31l7-68 13-99 5-32 3-6z" fill="#ECDCCC"/>
<path transform="translate(689,120)" d="m0 0h12l-3 2v15l3 45 2 60 2 50 1 23-3 1-7-1-1-2-6-55-6-72-1-21v-19h4v-6l2-1 1 5 1 13 4 1 1-4h2l-1-7v-8l-1-12-2-3h-8v-2z" fill="#FB1F35"/>
<path transform="translate(639,424)" d="m0 0 4 1 4 7 2 15v42l-2 34-4 40-4 15-11-1-39-8-23-7-15-6-16-8-5-3 1-6 9 1 3 3h2v3l5-1 16 10 1 1 11 1 7 2 6-2 3 1v-4h2v2l6 1 6 4 12 2 2 4 5 1 2-2 1-4 1-3h2l-2-5 1-8-1-2 3-3 2-4 1-4-2-2 2-2 2-3v-11l1-1v-13h2l-1-4 1-4v-11l-1-5 1-13v-3l1-5-2-20-2-1 1-4h2l-3-4z" fill="#FB1F35"/>
<path transform="translate(750,30)" d="m0 0 9 2 19 7 19 9 10 6 7 4 10 7 13 10 16 15 7 8 4 5 7 9 3 4v2h2l5 9 5 7 6 12 6 10 5 13 3 7 7 21 10 38 3 23 1 27v18l-1 27-4 29-9 36-3 9h-1l2-18h2l2-9 4-15 3-22v-14l1-10v-24l-1-8v-36l-3-12-2-9-2-5-1-8h-2l-1-9-3-12-3-9-1-6h-2l-4-10v-2l-4-2 1-2-2-2h-1l-1-5-2-1-1-5-5-5 3-2-3-1 1-2-6-8-3-5-4-2v-2h-3l1-2-10-10-7-9-5-5-1-3-4-2-5-5-5-3-3-3v-2l-5-2-5-4-2-1v-2l-5-2-7-4-7-3v-2l-5-1v-3l-6-1v-2l-6-1v-2h-3v-2l-3 1v-2l-6-1v-2l-3 1v-2l-3 1-7-3h-2l-1-2-5-2-1-3z" fill="#FB2136"/>
<path transform="translate(633,149)" d="m0 0h1l1 24 4 6 2 16h2l2-12h1v20l-2 36-6 67-2 11h-11l-1-1v-15l3-49 3-43z" fill="#FC2036"/>
<path transform="translate(537,973)" d="m0 0h107l33 2v1l-77 1-1 4-10 4-15 2-4 2h-16l-8 1-2-1h-14l-4-1-8 3-5 1-1 5-5 10 1 2-1 4-6 1-1 2-2-5v-11l5-13 8-9 7-3 5-1z" fill="#7C1C1A"/>
<path transform="translate(0,1174)" d="m0 0 4 2v2l3-1v12h28v1l-9 1 27 3 23 2 19 3 10 5 1 5h-106z" fill="#FCFDFD"/>
<path transform="translate(1240,114)" d="m0 0h11l4 2 1 2 11 4 7 4-1 2-12-5-9-3h-16l-13 4-12 6-4 3h-2v2l-8 7-10 12-9 15-10 19-7 16-7 21-6 29-3 18-2 20v19l2 15v6h2l5 17 10 19 6 8 12 12 3 2v2l4 2 12 9 9 5 1 4 1 2-1 2 2 2-5 1-3-3v-2l-4-1-5-1-3-2v-3l-4 1v-2h-2l-3-3-1-3-3-2v-2l-5-1-4-5-3-3-2-6-3-1v-2l-3-1-3-6v-3l-2-1 1-7-2-1-3-7-1-4-1-7-4-6-2-8-1-35 1-17 2-9 4-23 4-19 8-22 4-9 1-2h-2l1-7 1-1h5l2-6 5-10-1 1-3-1 1-2h3l1-2 1 1 5-8v-3l-2 1v-5l7-9 4-4h2l2-4 5-4 4-3h7l3 1 1-4 1-2 7-1v-2h5l1-2h9z" fill="#FA2035"/>
<path transform="translate(134,249)" d="m0 0h189v1l-25 1 1 1 7 1v2l2 2-3 3-18 1h-49l-9-2-5 1h-16l-14-1-4-3-3 1v-2l-6 2h-3l-2 2v-2l-12 3-7-2h-2l-2 1v-4l6-2h8l1-1-31-1z" fill="#FB2E3C"/>
<path transform="translate(1582,36)" d="m0 0 1 2v526l15 3v1h-9l-8-2-1-3v-79l-1-119v-70l1-201 1-57z" fill="#F1CAAC"/>
<path transform="translate(960,973)" d="m0 0h95l10 2 7 3v2l4 2-4 2-9-1-4-2h-20l-7-1-6-1h-10l-2-1v2l-17 1-3 1v-2l-24 1-8-2-9-1v2l-7 1-24 6-5 2-6 3-10 2-7-1v2l-19 2h-9v-2l18-6 15-4 16-5-4-2 15-3z" fill="#831B1B"/>
<path transform="translate(669,918)" d="m0 0h342l21 1 9 1 2 1 1 10v22l-2 1-31 1-53 5-25 4h-5l4-2 17-3 46-5 13-1 35-1-2-29-4-1-172-1h-153l-65 1h-106l-6-1v-1h54z" fill="#EBE4DA"/>
<path transform="translate(1045,905)" d="m0 0h12l-1 2-13 1-47 1h-449l-21-1-4-2h109z" fill="#D7D8A2"/>
<path transform="translate(631,122)" d="m0 0h3v27l-4 76-4 56-1 20v15l11 1 1-3v4l-4 1h-10v-32l3-47 2-25 2-45 1-11v-23l-1-1-1 3-2 18-1 7-1 18-3 12-4 7h-2v6l-2 7-6 42-4 37-3 33-1 17v14l2 13 5 12-1 2-6-12-2-11v-31l7-68 13-99 5-32 3-6z" fill="#EED7C3"/>
<path transform="translate(1217,418)" d="m0 0 3 3 3 6 2 12v47l-6 65-3 17-3 11-27-5-32-8-20-7-19-9-15-9-6-4 2-1 10 6 6 2v-3l4 1 6 4-1 3 2 1 1-3 2 5 5 3 16 5h4v-2l9 2 8 1 4 1 4-1 7 5v4l10 1v2l9 1 8 3 2-9v-3h2v-2h-4l-1-3 2-2-3-1v-11l3-5 3-3v-3l4-3 1-29 1-3 1-15 1-19-1-18-1-2h2l-2-14-3-4v-2h-2l1-4-1-3z" fill="#FC2036"/>
<path transform="translate(1882,39)" d="m0 0 9 2 23 8 27 13 18 11 5 4 6 3v2l5 2 9 7v2l4 2 10 10-1 2-4-1-1 2-4-2-4-4-3-1v-2l-3-1v-2l-3-1v-2h-3v-2l-6-2v-2h-3v-2l-5-2-4-2v-2l-6-2v-2l-5-1-6-4-10-4v-2l-6-2v-2h-5l-6-2h-3l-2 2-1-3h-5l-2-3-6-3-4-5 4-1 5 1 3 1v-2l-9-1v-2l-6-1z" fill="#FB2035"/>
<path transform="translate(649,795)" d="m0 0 4 1 4 7 1 26h387l2-2-1 4h-476v-1l57-1 16-1v-20l4-11z" fill="#F9AC77"/>
<path transform="translate(730,374)" d="m0 0 1 3-6 9-9 12-7 7-6 7-8 7-5 5-4 9-1 12-1 32v29l3 32 2 36 2 1h8l20-4 44-11 5-1-1 2-22 6-33 8-12 2h-14l-1-2-2-32-3-36v-58l1-14 4-11 4-5h2l1-3h2l2-5 9-7 12-13 9-11h2z" fill="#F4BF98"/>
<path transform="translate(1792,397)" d="m0 0h1l1 12 1 55v36l1 4-1 4 2 2-1 4-4 3v3 7l-3 6-6 3-3 6v4l-7-1-2 5h-1l-1-10v-13l6-7 12-4h2l2-29z" fill="#FB1F35"/>
<path transform="translate(516,848)" d="m0 0h50v1l-42 1-7 1v2h2l-2 4-4 6-2 13h2l4 10 3 6v2l4 2v2l-8-1-2 2-2 3-8-7-4-6-2-8v-9l4-10 9-11z" fill="#731E18"/>
<path transform="translate(774,1032)" d="m0 0h15l12 1h143l49 1h57l15-1-3 2-11 1h-422l-93-1v-1l210-1z" fill="#8B201E"/>
<path transform="translate(664,119)" d="m0 0 4 1 2-1 14 2-4 2 1 2v7h-1l-2-8-4 2-1 1-1 187-1 4h-13l-1-3v-69h1l1 45 4-4 3 1 1 3h2l1-11v-151l-1-5-8-2v-2z" fill="#FB1F35"/>
<path transform="translate(338,29)" d="m0 0h1v46l-1 47-1 6-79 1h-117v-1l22-1 1-1 15-1 9-3 13 1h13l18 1 5 2h18 3l5-1 4 1h24l45 1 1-93z" fill="#FB1F35"/>
<path transform="translate(551,1035)" d="m0 0h396v1l-214 1-39 1h-108l-24-1-11-1z" fill="#CDD286"/>
<path transform="translate(1488,195)" d="m0 0h2l5 16 5 22 3 14 3 26v39l-2 23-2 17-3 10-8 33-7 20-3 6-1-2 7-21 4-15 4-17 3-16 3-34v-47l-2-23-5-26-6-22z" fill="#EFD1B9"/>
<path transform="translate(1786,285)" d="m0 0h1l4 33 1 16 1 33v30l-1 90-2 26-1 3-14 5-5 6v13l2 29 16 1v1h-17l-1-1-1-19-1-8v-19l5-6 12-4 1-1 1-17 3-95v-57l-2-34-2-16z" fill="#F0CFB5"/>
<path transform="translate(522,906)" d="m0 0h239l-2 2-70 1h-142l-21-1z" fill="#D8D8A4"/>
<path transform="translate(1280,128)" d="m0 0h7l15 15v4l3 1v2h2l1 5 3 1v3h2l1 6h2l4 8 3 7v5h-3v2h-2l-1 2-8-16-9-16-9-12-9-10-5-5h2z" fill="#FB1F35"/>
<path transform="translate(1719,22)" d="m0 0h43l27 2-1 2-19 1-12-1h-2-6l-1-2h-8l-2 1-4-1v2h-3v-2l-22 1 4 2-1 2h3v2l-11 2-11-1-2 1-5-3h-6l-3 3-1-2-1-1-1-3-2 3-11 1-5-1-3 1h-29v-1l76-7z" fill="#FB1F35"/>
<path transform="translate(773,668)" d="m0 0h25l96 1 23 3v1l-18-1h-205l-26 3-19 5-4-1 24-7 15-2 17-1z" fill="#EBE4DA"/>
<path transform="translate(1094,536)" d="m0 0 6 2 7 5 5 1v-3l4 1 6 4-1 3 2 1 1-3 2 5 5 3 16 5h4v-2l9 2 8 1 4 1 4-1 7 5v4l10 1v2l9 1 7 3-3 1-23-5-25-6-24-8-19-9-15-9-6-4z" fill="#FC2036"/>
<path transform="translate(697,752)" d="m0 0 9 1 4 5 5 7-3 10-6 4h-6l-6-3-2-2v-7l2-12z" fill="#F9AC77"/>
<path transform="translate(857,781)" d="m0 0 8 1 9 9 1 8-5 5-5 1h-7l-6-4-3-4 1-8z" fill="#F9AC77"/>
<path transform="translate(744,709)" d="m0 0 7 1 5 4 2 3v12l-4 4-5 2h-6l-3-3-1-7-3-3v-6l5-5z" fill="#F9AC77"/>
<path transform="translate(1048,848)" d="m0 0h20l5 5 6 8 4 9 1 10-2 8-3 7-2-4-1-16v-2l-3-3-4-6-10-10v-4l-11-1z" fill="#752019"/>
<path transform="translate(957,970)" d="m0 0h82l21 2 5 2-3 1-7-1h-95l-34 2-21 4 1-2 16-4 20-3z" fill="#DDDCB4"/>
<path transform="translate(961,766)" d="m0 0h10l2 1 4 8v9l-3 6-6 2-4-3-5-1-1-6v-14z" fill="#F9AC77"/>
<path transform="translate(923,249)" d="m0 0h2l1 9 1 27v18l-1 27-4 29-9 36-3 9h-1l2-18h2l2-9 4-15 3-22v-14l1-10v-24l-1-8v-34z" fill="#FC2036"/>
<path transform="translate(832,693)" d="m0 0 6 2 6 7 1 2v12l-5 2-4-3-4-1-1 3-3-1-2-8-3-4v-6l6-4z" fill="#F9AC77"/>
<path transform="translate(919,792)" d="m0 0 5 2 5 8 1 9-6 9-5-1-7-9-1-11 5-6z" fill="#F9AC77"/>
<path transform="translate(1771,550)" d="m0 0 2 1 2 6 1-2h2v-2l8 1 1 2h6l3 1 4-1 2 6h-3l-1 2-9 2-2 1 10 1v1l-7 1h-18l-1-1z" fill="#FB1F35"/>
<path transform="translate(686,690)" d="m0 0h11l3 3 2 12-4 3-10 2-7-3-2-2v-7l3-6z" fill="#F9AC77"/>
<path transform="translate(808,743)" d="m0 0h7l3 3 3 8v5l-6 8-5 2-4-4-4-8v-8l1-3z" fill="#F9AC77"/>
<path transform="translate(595,780)" d="m0 0 5 1 7 7-1 6-5 5-11 1-5-3-2-3v-7l6-5z" fill="#F9AC77"/>
<path transform="translate(861,1036)" d="m0 0h188v1l-15 1-43 1h-39l-91-2z" fill="#E6E1CD"/>
<path transform="translate(643,426)" d="m0 0 3 1 4 10 1 4v55l-4 49-4 35h-6l-1-2h3l2-10 3-22 3-40 1-17v-42l-2-15z" fill="#F0CEB4"/>
<path transform="translate(895,737)" d="m0 0 5 1 3 3 4 10-6 8-3 2-6-1-4-5-1-11 2-5z" fill="#F9AC77"/>
<path transform="translate(566,970)" d="m0 0h34l44 1 32 3v1h-12l-20-1h-107l-14 1-8 1 2-2 12-3z" fill="#D6D79F"/>
<path transform="translate(773,786)" d="m0 0 5 1v6l2 5-5 4-6 2-7-1-7-6 1-7 4-3h12z" fill="#F9AC77"/>
<path transform="translate(1175,172)" d="m0 0 1 3-13 29-6 19-3 15-4 18-4 23-1 12v25l1 16h-1l-3-21v-19l3-26 6-33 4-15 7-19 12-25z" fill="#F0CDB2"/>
<path transform="translate(1503,1189)" d="m0 0h41l55 1v1l-14 1-10 3h-22l-26-2-20-2z" fill="#EDF8F6"/>
<path transform="translate(1322,201)" d="m0 0 2 2 5 15 5 16 5 25 2 25v19l-2 26-4 16-2 3 1-9 3-15 1-13v-30l-2-21-1-11h-3l-2-4-1-16-2-9-5-14z" fill="#F1CBAE"/>
<path transform="translate(922,694)" d="m0 0h7l6 3 2 2v8l-3 5-4 2h-6l-5-4v-14z" fill="#F9AC77"/>
<path transform="translate(641,734)" d="m0 0h6l3 3v9l-7 8-6 1-3-3-2-5v-10l3-2z" fill="#F9AC77"/>
<path transform="translate(1580,390)" d="m0 0h2l1 174 15 3v1h-9l-8-2-1-3z" fill="#EBE4DA"/>
<path transform="translate(1719,441)" d="m0 0h2l4 104v30l-1 1h-11v-1l10-1v-17l-1-26-2-34-1-9-1-22v-9l-1-2 1-7z" fill="#FB2337"/>
<path transform="translate(631,159)" d="m0 0h1v30l-3 50-3 42-1 20v15l11 1 1-3v4l-4 1h-10v-32l3-47 2-25 2-45z" fill="#EFD3BB"/>
<path transform="translate(1219,531)" d="m0 0h1v11l-3 23-4 14-4-2 3-9v-3h2v-2h-4l-1-3 2-2-3-1v-11l3-5 3-3v-3z" fill="#FB1F35"/>
<path transform="translate(1222,425)" d="m0 0h2l2 6 1 7v47l-4 44-4 36-2 4-2 9-2 1 2-11 3-17 6-65v-47z" fill="#F1CAAD"/>
<path transform="translate(1724,20)" d="m0 0h20l29 1 11 1 1 2-23-1h-43l-32 2-52 5h-6l3-2 2-1 51-5 11-1z" fill="#EDDAC8"/>
<path transform="translate(921,228)" d="m0 0h2l4 23 2 25v31l-1 25-2 16-3 14-1 5h-2l1-8 4-29 1-38v-14l-1-20-3-23z" fill="#EFD0B8"/>
<path transform="translate(698,121)" d="m0 0 4 1h-3l1 21 6 1-2 16-1 3v79h-1l-2-60-3-45v-15z" fill="#EED2BA"/>
<path transform="translate(971,722)" d="m0 0h9l4 2 2 6v9l-10 1-7-6-2-4 1-6z" fill="#F9AC77"/>
<path transform="translate(1964,738)" d="m0 0h82l-1 2-10 1h-88l-5-1v-1z" fill="#EAF6F3"/>
<path transform="translate(648,19)" d="m0 0h44l21 2 7 1v1l-15 1-40-1v-2h-8v2h-5v-2l-26 1v-1z" fill="#FC2036"/>
<path transform="translate(2043,1195)" d="m0 0h5v14h-23v-5l10-6z" fill="#FDFDFD"/>
<path transform="translate(551,958)" d="m0 0h41l3 2-9 3-1 1 7 3v1l-10-1-26-2-1-3z" fill="#EAFFFF"/>
<path transform="translate(664,119)" d="m0 0 4 1 2-1 14 2-4 2 1 2v7h-1l-2-8-4 2-1 1-1 153h-1l-1-151-1-5-8-2v-2z" fill="#FC2036"/>
<path transform="translate(1737,130)" d="m0 0 4 1 4 3 1 4h2l6 7v4h3l3 6v5h2l4 10-1 4 2 1-2 3-6-7v-4l-2-1-3-5-3-11v-2-2l-3-1v-2l-2-1-2-4-7-3-1-4z" fill="#FC2036"/>
<path transform="translate(338,29)" d="m0 0h1v46l-1 47-1 6-78 1v-4l8 1h24l45 1 1-93z" fill="#FC2036"/>
<path transform="translate(1718,358)" d="m0 0h2l2 61 1 20 1 35v26l-2-3-2-58-2-71z" fill="#F0CDB2"/>
<path transform="translate(676,123)" d="m0 0 3 1 1 6-4-2-2 1v182l-1 7h-2l1-191z" fill="#F9AC77"/>
<path transform="translate(1164,192)" d="m0 0 1 2-7 19-4 12-6 29-3 18-2 20-1 19h-1l-1-16 1-20 2-9 4-23 4-19 8-22 4-9z" fill="#FC2036"/>
<path transform="translate(518,901)" d="m0 0 18 1 4 1h50l83 1v1h-156l-2-2h3z" fill="#6B1A16"/>
<path transform="translate(1256,423)" d="m0 0 1 4-2 7-1 12v33l1 32h-2l-2-31-1-33 2-15 2-7h2z" fill="#F1CAAC"/>
<path transform="translate(654,117)" d="m0 0 4 2v2l2 1h-2v45h-1l-1-42-6 1-1 6-2 46h-1v-44l-2-4v-4l-3-1v-2h6l3-4z" fill="#FB1F35"/>
<path transform="translate(729,282)" d="m0 0h1l6 51v23l-3 15-2 3-1-4 2-10v-29l-2-29-1-11z" fill="#F1CBAD"/>
<path transform="translate(1719,22)" d="m0 0h43l27 2-1 2-19 1-12-1h-2-6l-1-2h-8l-2 1-4-1v2h-3v-2h-26v-1z" fill="#FC2036"/>
<path transform="translate(2030,150)" d="m0 0 2 1 5 12 6 11 3 6 2 1v7l-2 1-4-1-1-7-2-2v-4l-5-2 2-1v-2l-4-2-1-2h2v-3l-3-1z" fill="#FB2538"/>
<path transform="translate(1973,90)" d="m0 0 9 2 1-2 1 3 4 2 10 10-1 2-4-1-1 2-4-2-4-4-3-1v-2l-3-1v-2l-3-1v-2h-3z" fill="#FC2036"/>
<path transform="translate(1181,1189)" d="m0 0h22l29 1 7 2v1l-10 2h-11l-28-4-9-1z" fill="#EAFBFA"/>
<path transform="translate(1226,17)" d="m0 0h36l24 2 12 2 1 2-16-2-16-1h-35l-23 1 4-3z" fill="#EFD0B7"/>
<path transform="translate(131,130)" d="m0 0 2 1-1 2-1 11-1 74h-1l-1-46-1-11v-24z" fill="#FC2036"/>
<path transform="translate(730,374)" d="m0 0 1 3-6 9-9 12-7 7-11 9-9 9-2-1 2-3h2l1-3h2l2-5 9-7 12-13 9-11h2z" fill="#EBE2D7"/>
<path transform="translate(251,739)" d="m0 0h21l-1 5-5 5v-3l-6-2-44-1v-1l27-1 8-1z" fill="#EAFAF8"/>
<path transform="translate(687,423)" d="m0 0 1 2-4 9-1 18-1 37-1 8h-1v-48l1-14 4-10z" fill="#EBE4DA"/>
<path transform="translate(1278,425)" d="m0 0h6l-1 10v3h-2v2l3 1-2 2-4-1v3h-3v-7l-1-6h2l1-6z" fill="#EE1C2B"/>
<path transform="translate(643,426)" d="m0 0 3 1 4 10 1 4v46l-2 1-1-41-2-15z" fill="#F1CAAD"/>
<path transform="translate(1498,357)" d="m0 0h1l-1 10-4 16-4 14-8 23-2 1 3-11 5-17 4-13 3-14 1-8z" fill="#F1CBAE"/>
<path transform="translate(1322,201)" d="m0 0 2 2 5 15 5 16 1 13-1 2h-2l-2-4-1-16-2-9-5-14z" fill="#F1DBC8"/>
<path transform="translate(783,43)" d="m0 0 5 1 16 8 10 6 7 5-1 2-6-3-8-1-1-3-4-2v-4l-8-2v-2l-4-1-6-2z" fill="#F01E2D"/>
<path transform="translate(921,228)" d="m0 0h2l4 23 2 25v10l-2 6h-1v-14l-1-20-3-23z" fill="#EFD1B9"/>
<path transform="translate(1780,516)" d="m0 0h2l-1 3-7 3-4 5v13l2 29 16 1v1h-17l-1-1-1-19-1-8v-19l5-6z" fill="#EDD9C6"/>
<path transform="translate(1320,195)" d="m0 0 3 1 9 26 2 2 3 18 2 8v9h-1l-6-29-9-27v-2h-2z" fill="#FC2036"/>
<path transform="translate(1175,172)" d="m0 0 1 3-13 29-6 17-3 8-1-4 8-24z" fill="#F0CDB1"/>
<path transform="translate(518,901)" d="m0 0 18 1 4 1 33 1v1h-56l-2-2h3z" fill="#721D18"/>
<path transform="translate(979,291)" d="m0 0h2l2 35 1 15h-2l-2-13-1-17z" fill="#F0CFB5"/>
<path transform="translate(1789,25)" d="m0 0h12l47 6 7 1v1l-21-1-1-1-18-2-11 1-3-1v-2l-12-1z" fill="#FC2036"/>
<path transform="translate(875,985)" d="m0 0 3 3-16 4-18 6-2-1 6-5 11-3 9-2z" fill="#E8F3E9"/>
<path transform="translate(1723,504)" d="m0 0h1v17h2v50h-1l-2-48z" fill="#F1CAAD"/>
<path transform="translate(513,67)" d="m0 0 2 1-1 4 2-3 2 5-2 3h-1l-2 3-9-2-1-3z" fill="#FC2036"/>
<path transform="translate(1835,739)" d="m0 0h7l4 1h10l3 2-23 1-1 2-1 29h-1v-34z" fill="#EAF0EB"/>
<path transform="translate(1488,195)" d="m0 0h2l5 16 4 16v6l-2 2-6-27-3-10z" fill="#F0CCB0"/>
<path transform="translate(895,978)" d="m0 0 8 1-4 3-17 5-4-1 3-3z" fill="#E9F5E9"/>
<path transform="translate(743,713)" d="m0 0h5l5 4-1 5h-7l-4-3 1-5z" fill="#EBE4DA"/>
<path transform="translate(1309,173)" d="m0 0 3 3 9 20v5l-2 1-10-24z" fill="#EFE5D8"/>
<path transform="translate(644,546)" d="m0 0h1v17l-2 17h-6l-1-2h3l2-10z" fill="#F1CBAE"/>
<path transform="translate(1495,360)" d="m0 0h1l-1 10-4 16-4 15-2 2 2-13 4-15 2-13z" fill="#FC2036"/>
<path transform="translate(990,356)" d="m0 0h2l1 5v4l2 5v11l-2 3-2-9-2-11z" fill="#EE1C2B"/>
<path transform="translate(1156,221)" d="m0 0 1 2-3 15-3 14-3 2 1-11 3-13z" fill="#EED8C4"/>
<path transform="translate(1236,119)" d="m0 0h16l17 6v1l-8-1-9-3h-15l-12 1 3-2z" fill="#F0CDB1"/>
<path transform="translate(927,291)" d="m0 0h2v16l-1 21-2 1v-26z" fill="#F1C9AB"/>
<path transform="translate(824,67)" d="m0 0 5 2 9 7 15 14 4 5-1 2-9-10-8-7-7-6v2h-2v-2h-2l-2-4z" fill="#F31D2F"/>
<path transform="translate(529,971)" d="m0 0h35v1l-25 1-2 1-14 1-8 1 2-2z" fill="#DFDDB9"/>
<path transform="translate(1334,239)" d="m0 0 2 4 3 16 1 9v11h-2l-2-19-2-13z" fill="#F2C8A8"/>
<path transform="translate(624,287)" d="m0 0h1v29l11 1 1-3v4l-4 1h-10v-31z" fill="#F0CDB2"/>
<path transform="translate(652,124)" d="m0 0 5 1v17h-1l-1-13h-5l-1 21h-1v-18l2-7z" fill="#F9AC77"/>
<path transform="translate(1076,983)" d="m0 0 3 3 4 11v13l-1 6h-1v-18l-4-4z" fill="#932A21"/>
<path transform="translate(1211,129)" d="m0 0 2 1-13 11-7 8-8 12h-2l2-5 7-9 9-10 4-2v-2z" fill="#F0CCB0"/>
<path transform="translate(0,1174)" d="m0 0 4 2v2l3-1v12l2 1h-3l-1-6-5 1z" fill="#EAFFFF"/>
<path transform="translate(1967,81)" d="m0 0 5 1 10 8 1 3-9-2-5-5v-3z" fill="#F01C2C"/>
<path transform="translate(1910,49)" d="m0 0 6 1 15 7 1 3-9-2-13-7z" fill="#F31D2F"/>
<path transform="translate(1662,24)" d="m0 0m-7 1h7l-2 2-25 3h-6l3-2 2-1z" fill="#EDD8C6"/>
<path transform="translate(543,818)" d="m0 0 4 2 1 4 3 1-1 4h-7z" fill="#F5BD33"/>
<path transform="translate(698,537)" d="m0 0h2v2h2l1 5v8h-5l-1-10z" fill="#EE1C2B"/>
<path transform="translate(730,374)" d="m0 0 1 3-6 9-9 12-6 5 2-4 6-7 1-4 7-8h2z" fill="#F4BC94"/>
<path transform="translate(1696,21)" d="m0 0h26l-3 2-29 1 4-2z" fill="#F0CEB4"/>
<path transform="translate(1322,366)" d="m0 0h2l-2 5-11 12-5 4v-3h2l2-4 5-6h2l2-4z" fill="#F0CDB2"/>
<path transform="translate(1181,1189)" d="m0 0h22l15 1v1l-20 1-17-2z" fill="#EFF4F0"/>
<path transform="translate(1072,899)" d="m0 0 3 1-14 5h-9l4-4h9z" fill="#82201C"/>
<path transform="translate(687,693)" d="m0 0h7l-1 6-1 1h-6l-2-4z" fill="#EBE4DA"/>
<path transform="translate(1332,249)" d="m0 0h3l2 11v13h-1l-2-11-2-6z" fill="#EFFEFE"/>
<path transform="translate(685,562)" d="m0 0h2v12l4 1h15v1l-6 1h-14l-1-2z" fill="#ECDDCF"/>
<path transform="translate(1780,516)" d="m0 0h2l-1 3-7 3-4 5-1 9h-1v-12l5-6z" fill="#F2C8A8"/>
<path transform="translate(1e3 405)" d="m0 0 2 1v9l3 1-2 5h-2l-3-9v-6z" fill="#F11C2D"/>
<path transform="translate(1320,203)" d="m0 0h2l6 17v8l-2-4-5-13z" fill="#EFFEFE"/>
<path transform="translate(1169,182)" d="m0 0 1 2-4 8-4-1 1-7z" fill="#FB1F35"/>
<path transform="translate(664,229)" d="m0 0 3 1v3h-2l3 6-2 5v4h-2l-1-10v-8z" fill="#FC2036"/>
<path transform="translate(1320,195)" d="m0 0 3 1 8 23-1 3-4-10-3-11h-2z" fill="#FB293A"/>
<path transform="translate(1874,40)" d="m0 0h7l2 3h-2v2h-12z" fill="#FB1F35"/>
<path transform="translate(919,368)" d="m0 0h1l-1 13-3 9-2 1 1-8z" fill="#F1CBAE"/>
<path transform="translate(2013,131)" d="m0 0 5 1v2l4 1 1 4-4 1-1-4h-3v-2l-3-1z" fill="#F82234"/>
<path transform="translate(767,793)" d="m0 0h7l1 4-7 2-2-1z" fill="#EBE4DA"/>
<path transform="translate(1498,357)" d="m0 0h1l-1 10-3 12h-1v-9l2-12z" fill="#EFD2BB"/>
<path transform="translate(1142,327)" d="m0 0 3 1v4h2l2 9-4-2-3-6z" fill="#FB2A3A"/>
<path transform="translate(650,487)" d="m0 0h1v9l-1 8-2 1v-16z" fill="#F0CFB5"/>
<path transform="translate(647,530)" d="m0 0h1l-1 15-1 8h-1v-21z" fill="#EED6C1"/>
<path transform="translate(1072,81)" d="m0 0m-1 1m-2 1h2l-1 3-8 7-8 8v-3z" fill="#FA5B51"/>
<path transform="translate(531,54)" d="m0 0 2 1-9 8v2h-2v3l-4-1 2-2-2-2 6-2v-2z" fill="#F8373E"/>
<path transform="translate(834,702)" d="m0 0 5 1 1 4-1 2-5-1-1-5z" fill="#EBE4DA"/>
<path transform="translate(1156,221)" d="m0 0 1 2-4 15-3 4 1-9z" fill="#EED4BE"/>
<path transform="translate(1213,18)" d="m0 0h11l8 1v1l-23 1z" fill="#F1CAAC"/>
<path transform="translate(1149,253)" d="m0 0 1 3-3 14-2 1 1-11 1-6z" fill="#EFD1B9"/>
<path transform="translate(783,43)" d="m0 0 5 1 12 6-4 1-3-1v-2l-4-1-6-2z" fill="#F31D2F"/>
<path transform="translate(656,313)" d="m0 0 2 2v3h14v1h-18l-1-2z" fill="#ECDFD1"/>
<path transform="translate(513,67)" d="m0 0 2 1-1 4-6 3-2-2zm-9 7 2 1h-3z" fill="#FA3C42"/>
<path transform="translate(924,351)" d="m0 0 1 4-3 12h-2l1-8 1-7z" fill="#F0CFB6"/>
<path transform="translate(689,120)" d="m0 0 7 1v3h-11v-2z" fill="#FB1F35"/>
<path transform="translate(1982,90)" d="m0 0 2 1v2l4 2 10 10h-3l-13-13z" fill="#F42634"/>
<path transform="translate(1495,220)" d="m0 0h2l2 7v6l-2 2-2-9z" fill="#F1C9AB"/>
<path transform="translate(601,374)" d="m0 0 3 4 4 7-1 3-4-4-1-4-1-1z" fill="#FB1F35"/>
<path transform="translate(1159,211)" d="m0 0 1 2-5 13-2 3 1-8 4-9z" fill="#F2C6A5"/>
<path transform="translate(422,203)" d="m0 0 2 3-1 3-2 2v4h-2l-1 2v-8h2z" fill="#EF1C2C"/>
<path transform="translate(1330,351)" d="m0 0h2l-3 9-4 6-1-4 5-8z" fill="#F0CCB1"/>
<path transform="translate(1634,27)" d="m0 0h9l3 2-17 1 3-2z" fill="#F1C8AA"/>
<path transform="translate(1581,563)" d="m0 0 11 3 6 1v1h-9l-8-2z" fill="#F1CAAC"/>
<path transform="translate(1445,481)" d="m0 0v3l-8 10-2 2 1-5 2-3h2v-2z" fill="#FB2538"/>
<path transform="translate(506,74)" d="m0 0h7v2h-3l3 2-5 1-5-1v-2z" fill="#F01C2C"/>
<path transform="translate(762,35)" d="m0 0 9 1 2 1v2l-10-1z" fill="#F11D2D"/>
<path transform="translate(1835,739)" d="m0 0h7l-1 3-5 1-2 2v-5z" fill="#EBF8F6"/>
<path transform="translate(1190,149)" d="m0 0h2l-2 4-5 8h-2l2-5z" fill="#F0CEB3"/>
<path transform="translate(824,67)" d="m0 0 5 2 4 4h-2l1 3h-2v-2h-2l-2-4z" fill="#F11D2D"/>
<path transform="translate(1664,24)" d="m0 0h7l5 1v1l-16 1z" fill="#F1CAAC"/>
</svg>
